<?xml version="1.0" encoding="UTF-8"?>
<svg id="Layer_2" data-name="Layer 2" xmlns="http://www.w3.org/2000/svg" viewBox="0 0 397.76 374.75">
  <defs>
    <style>
      .cls-1 {
        fill: #644f37;
      }
    </style>
  </defs>
  <g id="Layer_1-2" data-name="Layer 1">
    <g>
      <path class="cls-1" d="M315.56,367.11c-5.91,0-13.38-1.62-22.42-4.87-9.04-3.25-17.72-8.86-26.07-16.85-8.34-7.99-17.55-19.93-27.63-35.8-10.08-15.87-19.98-37.24-29.71-64.12l-42.4-120.25c-8.57-24.33-15.64-41.12-21.2-50.39-8.34-13.43-15.87-22.47-22.59-27.11-12.28-8.57-24.21-12.86-35.8-12.86-13.9,0-28.38,3.13-43.44,9.38l1.04,3.47c9.5-3.47,18.42-5.21,26.76-5.21,18.53,0,34.06,8.92,46.57,26.76l.11.18-86.11,206.26c-3.48,6.72-7.88,11.76-13.21,15.12-5.33,3.36-10.77,5.04-16.33,5.04H0v3.48h69.86v-3.48h-2.78c-5.1,0-8.86-1.56-11.29-4.69-2.43-3.13-3.65-6.08-3.65-8.86s.58-5.56,1.74-8.34l23.98-61.86h95.04l13.55,39.62c13.9,41.24,30.81,71.94,50.74,92.1,9.26,9.73,19.23,17.32,29.89,22.76,10.65,5.44,21.31,8.17,31.97,8.17s21.55-1.86,32.67-5.56l-.35-3.48c-4.64.92-9.9,1.39-15.81,1.39ZM81.67,201.68l46.65-115.51c4.14,8.62,8.69,20.13,13.64,34.54l27.46,80.98h-87.75Z"/>
      <path class="cls-1" d="M327.91,54.18v3.48h2.78c5.1,0,8.86,1.56,11.29,4.69,2.43,3.13,3.65,6.08,3.65,8.86s-.58,5.56-1.74,8.34l-23.98,61.86h-93.09l-18-51.05c-8.57-24.33-15.64-41.12-21.2-50.39-8.34-13.43-15.87-22.47-22.59-27.11-12.28-8.57-24.21-12.86-35.8-12.86-13.9,0-28.38,3.13-43.44,9.38l1.04,3.47c9.5-3.47,18.42-5.21,26.76-5.21,18.53,0,34.06,8.92,46.57,26.76l8.69,14.94c4.4,8.81,9.26,20.97,14.6,36.49l27.46,80.98,3.48,10.43,13.55,39.62c13.9,41.24,30.81,71.94,50.74,92.1,9.26,9.73,19.23,17.32,29.89,22.76,10.65,5.44,21.31,8.17,31.97,8.17s21.55-1.86,32.67-5.56l-.35-3.48c-4.64.92-9.9,1.39-15.81,1.39s-13.38-1.62-22.42-4.87c-9.04-3.25-17.72-8.86-26.06-16.85-8.01-7.68-16.83-19.01-26.45-33.96l82.98-198.75c3.48-6.72,7.88-11.76,13.21-15.12,5.33-3.36,10.77-5.04,16.33-5.04h3.13v-3.48h-69.86ZM272.43,259.94c-7.16-13.62-14.23-30.05-21.21-49.33l-20.72-58.77h85.59l-43.66,108.1Z"/>
    </g>
  </g>
</svg>